<svg height="700" width="1200" xmlns="http://www.w3.org/2000/svg">
<title>Your Diagram Title</title>
<!-- Generated with SankeyMATIC: 15/07/2024, 10:39:32 -->
<rect height="700" width="1200" fill="#ffffff"></rect>
<g transform="translate(12,12)">
<g id="sankey_flows">
<path id="flow0" d="M12 208.01944C137.00412 208.01944 137.00412 179.64899 262.00825 179.64899" fill="none" stroke-width="93.68182" stroke="#bab0ab" opacity="0.45"><title>SafeSecIoT Canvas → Components: 3</title></path>
<path id="flow1" d="M12 457.83762C137.00412 457.83762 137.00412 491.90258 262.00825 491.90258" fill="none" stroke-width="93.68182" stroke="#bab0ab" opacity="0.45"><title>SafeSecIoT Canvas → Data: 3</title></path>
<path id="flow2" d="M12 364.1558C137.00412 364.1558 137.00412 369.36785 262.00825 369.36785" fill="none" stroke-width="93.68182" stroke="#bab0ab" opacity="0.45"><title>SafeSecIoT Canvas → Actions: 3</title></path>
<path id="flow18" d="M798.02475 331.85899C923.02887 331.85899 923.02887 327.41125 1048.033 327.41125" fill="none" stroke-width="93.68182" stroke="#edc949" opacity="0.45"><title>Control Action → STPA-SafeSecIoT: 3</title></path>
<path id="flow21" d="M798.02475 490.35058C923.02887 490.35058 923.02887 452.32034 1048.033 452.32034" fill="none" stroke-width="93.68182" stroke="#edc949" opacity="0.45"><title>Feedback → STPA-SafeSecIoT: 3</title></path>
<path id="flow3" d="M12 286.08762C137.00412 286.08762 137.00412 274.50842 262.00825 274.50842" fill="none" stroke-width="62.45455" stroke="#bab0ab" opacity="0.45"><title>SafeSecIoT Canvas → Connectivity: 2</title></path>
<path id="flow19" d="M798.02475 184.25211C923.02887 184.25211 923.02887 249.34307 1048.033 249.34307" fill="none" stroke-width="62.45455" stroke="#edc949" opacity="0.45"><title>Controlled Process → STPA-SafeSecIoT: 2</title></path>
<path id="flow4" d="M274.00825 148.42172C399.01237 148.42172 399.01237 97.90739 524.0165 97.90739" fill="none" stroke-width="31.22727" stroke="#4e79a7" opacity="0.45"><title>Components → CGM: 1</title></path>
<path id="flow5" d="M274.00825 179.64899C399.01237 179.64899 399.01237 145.92591 524.0165 145.92591" fill="none" stroke-width="31.22727" stroke="#4e79a7" opacity="0.45"><title>Components → Insulin Pump: 1</title></path>
<path id="flow6" d="M274.00825 210.87626C399.01237 210.87626 399.01237 289.98148 524.0165 289.98148" fill="none" stroke-width="31.22727" stroke="#4e79a7" opacity="0.45"><title>Components → Smartphone: 1</title></path>
<path id="flow7" d="M274.00825 258.89478C399.01237 258.89478 399.01237 193.94443 524.0165 193.94443" fill="none" stroke-width="31.22727" stroke="#76b7b2" opacity="0.45"><title>Connectivity → Bluetooth: 1</title></path>
<path id="flow8" d="M274.00825 290.12206C399.01237 290.12206 399.01237 241.96295 524.0165 241.96295" fill="none" stroke-width="31.22727" stroke="#76b7b2" opacity="0.45"><title>Connectivity → 4G/5G or Wi-Fi: 1</title></path>
<path id="flow9" d="M274.00825 322.52694v31.22727L524.0165 353.61364v-31.22727z" fill="#e15759" stroke-width="0.5" stroke="#e15759" opacity="0.45"><title>Actions → Read blood glucose level: 1</title></path>
<path id="flow10" d="M274.00825 369.36785C399.01237 369.36785 399.01237 386.01852 524.0165 386.01852" fill="none" stroke-width="31.22727" stroke="#e15759" opacity="0.45"><title>Actions → Check insulin need: 1</title></path>
<path id="flow11" d="M274.00825 400.59512C399.01237 400.59512 399.01237 434.03705 524.0165 434.03705" fill="none" stroke-width="31.22727" stroke="#e15759" opacity="0.45"><title>Actions → Apply insulin: 1</title></path>
<path id="flow12" d="M274.00825 460.67531C399.01237 460.67531 399.01237 482.05557 524.0165 482.05557" fill="none" stroke-width="31.22727" stroke="#f28e2c" opacity="0.45"><title>Data → Blood glucose level: 1</title></path>
<path id="flow13" d="M274.00825 491.90258C399.01237 491.90258 399.01237 530.07409 524.0165 530.07409" fill="none" stroke-width="31.22727" stroke="#f28e2c" opacity="0.45"><title>Data → Insulin level: 1</title></path>
<path id="flow14" d="M274.00825 523.12985C399.01237 523.12985 399.01237 578.09261 524.0165 578.09261" fill="none" stroke-width="31.22727" stroke="#f28e2c" opacity="0.45"><title>Data → Amount of insulin applied: 1</title></path>
<path id="flow15" d="M536.0165 338C661.02062 338 661.02062 300.63171 786.02475 300.63171" fill="none" stroke-width="31.22727" stroke="#59a14f" opacity="0.45"><title>Read blood glucose level → Control Action: 1</title></path>
<path id="flow16" d="M536.0165 386.01852C661.02062 386.01852 661.02062 331.85899 786.02475 331.85899" fill="none" stroke-width="31.22727" stroke="#59a14f" opacity="0.45"><title>Check insulin need → Control Action: 1</title></path>
<path id="flow17" d="M536.0165 434.03705C661.02062 434.03705 661.02062 363.08626 786.02475 363.08626" fill="none" stroke-width="31.22727" stroke="#59a14f" opacity="0.45"><title>Apply insulin → Control Action: 1</title></path>
<path id="flow20" d="M798.02475 411.10478C923.02887 411.10478 923.02887 389.8658 1048.033 389.8658" fill="none" stroke-width="31.22727" stroke="#edc949" opacity="0.45"><title>Controller → STPA-SafeSecIoT: 1</title></path>
<path id="flow22" d="M536.0165 289.98148C661.02062 289.98148 661.02062 411.10478 786.02475 411.10478" fill="none" stroke-width="31.22727" stroke="#ff9da7" opacity="0.45"><title>Smartphone → Controller: 1</title></path>
<path id="flow23" d="M536.0165 145.92591C661.02062 145.92591 661.02062 199.86575 786.02475 199.86575" fill="none" stroke-width="31.22727" stroke="#af7aa1" opacity="0.45"><title>Insulin Pump → Controlled Process: 1</title></path>
<path id="flow24" d="M536.0165 97.90739C661.02062 97.90739 661.02062 168.63847 786.02475 168.63847" fill="none" stroke-width="31.22727" stroke="#af7aa1" opacity="0.45"><title>CGM → Controlled Process: 1</title></path>
<path id="flow25" d="M536.0165 482.05557C661.02062 482.05557 661.02062 459.1233 786.02475 459.1233" fill="none" stroke-width="31.22727" stroke="#9c755f" opacity="0.45"><title>Blood glucose level → Feedback: 1</title></path>
<path id="flow26" d="M536.0165 530.07409C661.02062 530.07409 661.02062 490.35058 786.02475 490.35058" fill="none" stroke-width="31.22727" stroke="#9c755f" opacity="0.45"><title>Insulin level → Feedback: 1</title></path>
<path id="flow27" d="M536.0165 578.09261C661.02062 578.09261 661.02062 521.57785 786.02475 521.57785" fill="none" stroke-width="31.22727" stroke="#9c755f" opacity="0.45"><title>Amount of insulin applied → Feedback: 1</title></path>
</g>
<g id="sankey_nodes">
<g class="node">
<rect id="r0" class="for_r0" x="0" y="161.17853" height="343.5" width="12" fill="#bab0ab" fill-opacity="1"><title>SafeSecIoT Canvas:
11</title></rect>
</g>
<g class="node">
<rect id="r1" class="for_r1" x="262.00825" y="132.80808" height="93.68182" width="12" fill="#4e79a7" fill-opacity="1"><title>Components:
3</title></rect>
</g>
<g class="node">
<rect id="r2" class="for_r2" x="262.00825" y="445.06167" height="93.68182" width="12" fill="#f28e2c" fill-opacity="1"><title>Data:
3</title></rect>
</g>
<g class="node">
<rect id="r3" class="for_r3" x="262.00825" y="322.52694" height="93.68182" width="12" fill="#e15759" fill-opacity="1"><title>Actions:
3</title></rect>
</g>
<g class="node">
<rect id="r4" class="for_r4" x="262.00825" y="243.28115" height="62.45455" width="12" fill="#76b7b2" fill-opacity="1"><title>Connectivity:
2</title></rect>
</g>
<g class="node">
<rect id="r5" class="for_r5" x="524.0165" y="82.29375" height="31.22727" width="12" fill="#59a14f" fill-opacity="1"><title>CGM:
1</title></rect>
</g>
<g class="node">
<rect id="r6" class="for_r6" x="524.0165" y="130.31227" height="31.22727" width="12" fill="#edc949" fill-opacity="1"><title>Insulin Pump:
1</title></rect>
</g>
<g class="node">
<rect id="r7" class="for_r7" x="524.0165" y="274.36784" height="31.22727" width="12" fill="#af7aa1" fill-opacity="1"><title>Smartphone:
1</title></rect>
</g>
<g class="node">
<rect id="r8" class="for_r8" x="524.0165" y="178.3308" height="31.22727" width="12" fill="#ff9da7" fill-opacity="1"><title>Bluetooth:
1</title></rect>
</g>
<g class="node">
<rect id="r9" class="for_r9" x="524.0165" y="226.34932" height="31.22727" width="12" fill="#9c755f" fill-opacity="1"><title>4G/5G or Wi-Fi:
1</title></rect>
</g>
<g class="node">
<rect id="r10" class="for_r10" x="524.0165" y="322.38636" height="31.22727" width="12" fill="#bab0ab" fill-opacity="1"><title>Read blood glucose level:
1</title></rect>
</g>
<g class="node">
<rect id="r11" class="for_r11" x="524.0165" y="370.40489" height="31.22727" width="12" fill="#4e79a7" fill-opacity="1"><title>Check insulin need:
1</title></rect>
</g>
<g class="node">
<rect id="r12" class="for_r12" x="524.0165" y="418.42341" height="31.22727" width="12" fill="#f28e2c" fill-opacity="1"><title>Apply insulin:
1</title></rect>
</g>
<g class="node">
<rect id="r13" class="for_r13" x="524.0165" y="466.44193" height="31.22727" width="12" fill="#e15759" fill-opacity="1"><title>Blood glucose level:
1</title></rect>
</g>
<g class="node">
<rect id="r14" class="for_r14" x="524.0165" y="514.46045" height="31.22727" width="12" fill="#edc949" fill-opacity="1"><title>Insulin level:
1</title></rect>
</g>
<g class="node">
<rect id="r15" class="for_r15" x="524.0165" y="562.47898" height="31.22727" width="12" fill="#76b7b2" fill-opacity="1"><title>Amount of insulin applied:
1</title></rect>
</g>
<g class="node">
<rect id="r16" class="for_r16" x="786.02475" y="285.01808" height="93.68182" width="12" fill="#59a14f" fill-opacity="1"><title>Control Action:
3</title></rect>
</g>
<g class="node">
<rect id="r17" class="for_r17" x="1048.033" y="218.1158" height="281.04545" width="12" fill="#edc949" fill-opacity="1"><title>STPA-SafeSecIoT:
9</title></rect>
</g>
<g class="node">
<rect id="r18" class="for_r18" x="786.02475" y="153.02484" height="62.45455" width="12" fill="#af7aa1" fill-opacity="1"><title>Controlled Process:
2</title></rect>
</g>
<g class="node">
<rect id="r19" class="for_r19" x="786.02475" y="395.49114" height="31.22727" width="12" fill="#ff9da7" fill-opacity="1"><title>Controller:
1</title></rect>
</g>
<g class="node">
<rect id="r20" class="for_r20" x="786.02475" y="443.50967" height="93.68182" width="12" fill="#9c755f" fill-opacity="1"><title>Feedback:
3</title></rect>
</g>
</g>
<g id="sankey_labels" font-family="sans-serif" font-size="14.5px" fill="#000000">
<rect id="label0_bg" class="for_r0" x="13.48071" y="322.46452" width="124.63638" height="19.68" rx="3.625" fill="#fff" fill-opacity="0.75" stroke="none" stroke-width="0" stroke-opacity="0"></rect>
<text id="label0" class="for_r0" text-anchor="start" x="17.71134" y="332.92853" font-weight="400" font-size="13.05px" dy="4.176">SafeSecIoT Canvas</text>
<rect id="label1_bg" class="for_r1" x="275.48898" y="169.185" width="82.81138" height="19.68" rx="3.625" fill="#fff" fill-opacity="0.75" stroke="none" stroke-width="0" stroke-opacity="0"></rect>
<text id="label1" class="for_r1" text-anchor="start" x="279.71959" y="179.64899" font-weight="400" font-size="13.05px" dy="4.176">Components</text>
<rect id="label2_bg" class="for_r2" x="275.48898" y="481.43858" width="36.38638" height="19.68" rx="3.625" fill="#fff" fill-opacity="0.75" stroke="none" stroke-width="0" stroke-opacity="0"></rect>
<text id="label2" class="for_r2" text-anchor="start" x="279.71959" y="491.90258" font-weight="400" font-size="13.05px" dy="4.176">Data</text>
<rect id="label3_bg" class="for_r3" x="274.68899" y="358.90388" width="52.42388" height="19.68" rx="3.625" fill="#fff" fill-opacity="0.75" stroke="none" stroke-width="0" stroke-opacity="0"></rect>
<text id="label3" class="for_r3" text-anchor="start" x="279.71959" y="369.36785" font-weight="400" font-size="13.05px" dy="4.176">Actions</text>
<rect id="label4_bg" class="for_r4" x="275.48898" y="264.04442" width="80.56936" height="19.68" rx="3.625" fill="#fff" fill-opacity="0.75" stroke="none" stroke-width="0" stroke-opacity="0"></rect>
<text id="label4" class="for_r4" text-anchor="start" x="279.71959" y="274.50842" font-weight="400" font-size="13.05px" dy="4.176">Connectivity</text>
<rect id="label5_bg" class="for_r5" x="537.49722" y="87.44339" width="39.27388" height="19.68" rx="3.625" fill="#fff" fill-opacity="0.75" stroke="none" stroke-width="0" stroke-opacity="0"></rect>
<text id="label5" class="for_r5" text-anchor="start" x="541.72784" y="97.90739" font-weight="400" font-size="13.05px" dy="4.176">CGM</text>
<rect id="label6_bg" class="for_r6" x="537.49722" y="135.46191" width="84.26138" height="19.68" rx="3.625" fill="#fff" fill-opacity="0.75" stroke="none" stroke-width="0" stroke-opacity="0"></rect>
<text id="label6" class="for_r6" text-anchor="start" x="541.72784" y="145.92591" font-weight="400" font-size="13.05px" dy="4.176">Insulin Pump</text>
<rect id="label7_bg" class="for_r7" x="537.49722" y="279.51747" width="79.91138" height="19.68" rx="3.625" fill="#fff" fill-opacity="0.75" stroke="none" stroke-width="0" stroke-opacity="0"></rect>
<text id="label7" class="for_r7" text-anchor="start" x="541.72784" y="289.98148" font-weight="400" font-size="13.05px" dy="4.176">Smartphone</text>
<rect id="label8_bg" class="for_r8" x="537.49722" y="183.48044" width="63.96138" height="19.68" rx="3.625" fill="#fff" fill-opacity="0.75" stroke="none" stroke-width="0" stroke-opacity="0"></rect>
<text id="label8" class="for_r8" text-anchor="start" x="541.72784" y="193.94443" font-weight="400" font-size="13.05px" dy="4.176">Bluetooth</text>
<rect id="label9_bg" class="for_r9" x="537.49722" y="231.49895" width="96.54887" height="19.68" rx="3.625" fill="#fff" fill-opacity="0.75" stroke="none" stroke-width="0" stroke-opacity="0"></rect>
<text id="label9" class="for_r9" text-anchor="start" x="541.72784" y="241.96295" font-weight="400" font-size="13.05px" dy="4.176">4G/5G or Wi-Fi</text>
<rect id="label10_bg" class="for_r10" x="537.49722" y="327.53599" width="154.63638" height="19.68" rx="3.625" fill="#fff" fill-opacity="0.75" stroke="none" stroke-width="0" stroke-opacity="0"></rect>
<text id="label10" class="for_r10" text-anchor="start" x="541.72784" y="338" font-weight="400" font-size="13.05px" dy="4.176">Read blood glucose level</text>
<rect id="label11_bg" class="for_r11" x="537.49722" y="375.55455" width="119.08638" height="19.68" rx="3.625" fill="#fff" fill-opacity="0.75" stroke="none" stroke-width="0" stroke-opacity="0"></rect>
<text id="label11" class="for_r11" text-anchor="start" x="541.72784" y="386.01852" font-weight="400" font-size="13.05px" dy="4.176">Check insulin need</text>
<rect id="label12_bg" class="for_r12" x="536.69723" y="423.57304" width="82.88638" height="19.68" rx="3.625" fill="#fff" fill-opacity="0.75" stroke="none" stroke-width="0" stroke-opacity="0"></rect>
<text id="label12" class="for_r12" text-anchor="start" x="541.72784" y="434.03705" font-weight="400" font-size="13.05px" dy="4.176">Apply insulin</text>
<rect id="label13_bg" class="for_r13" x="537.49722" y="471.59154" width="121.26138" height="19.68" rx="3.625" fill="#fff" fill-opacity="0.75" stroke="none" stroke-width="0" stroke-opacity="0"></rect>
<text id="label13" class="for_r13" text-anchor="start" x="541.72784" y="482.05557" font-weight="400" font-size="13.05px" dy="4.176">Blood glucose level</text>
<rect id="label14_bg" class="for_r14" x="537.49722" y="519.61012" width="77.01138" height="19.68" rx="3.625" fill="#fff" fill-opacity="0.75" stroke="none" stroke-width="0" stroke-opacity="0"></rect>
<text id="label14" class="for_r14" text-anchor="start" x="541.72784" y="530.07409" font-weight="400" font-size="13.05px" dy="4.176">Insulin level</text>
<rect id="label15_bg" class="for_r15" x="536.69723" y="567.62855" width="155.42388" height="19.68" rx="3.625" fill="#fff" fill-opacity="0.75" stroke="none" stroke-width="0" stroke-opacity="0"></rect>
<text id="label15" class="for_r15" text-anchor="start" x="541.72784" y="578.09261" font-weight="400" font-size="13.05px" dy="4.176">Amount of insulin applied</text>
<rect id="label16_bg" class="for_r16" x="799.50546" y="321.395" width="90.06142" height="19.68" rx="3.625" fill="#fff" fill-opacity="0.75" stroke="none" stroke-width="0" stroke-opacity="0"></rect>
<text id="label16" class="for_r16" text-anchor="start" x="803.73609" y="331.85899" font-weight="400" font-size="13.05px" dy="4.176">Control Action</text>
<rect id="label17_bg" class="for_r17" x="1061.51376" y="348.17454" width="114.48628" height="19.68" rx="3.625" fill="#fff" fill-opacity="0.75" stroke="none" stroke-width="0" stroke-opacity="0"></rect>
<text id="label17" class="for_r17" text-anchor="start" x="1065.74434" y="358.63852" font-weight="400" font-size="13.05px" dy="4.176">STPA-SafeSecIoT</text>
<rect id="label18_bg" class="for_r18" x="799.50546" y="173.7881" width="119.06142" height="19.68" rx="3.625" fill="#fff" fill-opacity="0.75" stroke="none" stroke-width="0" stroke-opacity="0"></rect>
<text id="label18" class="for_r18" text-anchor="start" x="803.73609" y="184.25211" font-weight="400" font-size="13.05px" dy="4.176">Controlled Process</text>
<rect id="label19_bg" class="for_r19" x="799.50546" y="400.64076" width="65.84131" height="19.68" rx="3.625" fill="#fff" fill-opacity="0.75" stroke="none" stroke-width="0" stroke-opacity="0"></rect>
<text id="label19" class="for_r19" text-anchor="start" x="803.73609" y="411.10478" font-weight="400" font-size="13.05px" dy="4.176">Controller</text>
<rect id="label20_bg" class="for_r20" x="799.50546" y="479.88658" width="66.80146" height="19.68" rx="3.625" fill="#fff" fill-opacity="0.75" stroke="none" stroke-width="0" stroke-opacity="0"></rect>
<text id="label20" class="for_r20" text-anchor="start" x="803.73609" y="490.35058" font-weight="400" font-size="13.05px" dy="4.176">Feedback</text>
</g>
</g></svg>